<svg width="1280" height="640" viewBox="0 0 1280 640" fill="none" xmlns="http://www.w3.org/2000/svg" xmlns:xlink="http://www.w3.org/1999/xlink">
    <!-- Fondo con Gradiente -->
    <rect width="1280" height="640" fill="url(#background_gradient)"/>
    <defs>
        <linearGradient id="background_gradient" x1="0" y1="0" x2="1280" y2="640" gradientUnits="userSpaceOnUse">
            <stop stop-color="#111827"/>
            <stop offset="1" stop-color="#1F2937"/>
        </linearGradient>
    </defs>

    <!-- Título Principal -->
    <text fill="#F9FAFB" xml:space="preserve" style="white-space: pre" font-family="Segoe UI, sans-serif" font-size="72" font-weight="bold" letter-spacing="0em">
        <tspan x="50%" y="280" text-anchor="middle">Sistema Académico Web</tspan>
    </text>

    <!-- Subtítulo -->
    <text fill="#9CA3AF" xml:space="preserve" style="white-space: pre" font-family="Segoe UI, sans-serif" font-size="32" letter-spacing="0.025em">
        <tspan x="50%" y="350" text-anchor="middle">Construido con Python, Flask y MySQL</tspan>
    </text>

    <!-- Logo de Flask (simplificado) -->
    <g transform="translate(420, 420) scale(1.2)">
        <path d="M 61.2,26.7 C 61.2,26.7 60.6,21.3 60,19.2 C 59.4,17.1 57.6,15.6 57.6,15.6 L 57.6,9.6 C 57.6,8.2 56.5,7.1 55.1,7.1 L 43.9,7.1 C 42.5,7.1 41.4,8.2 41.4,9.6 L 41.4,15.6 C 41.4,15.6 39.6,17.1 39,19.2 C 38.4,21.3 37.8,26.7 37.8,26.7 L 37.8,55.1 C 37.8,55.1 39,60.6 39.5,62.7 C 40,64.8 41.4,66.3 41.4,66.3 L 41.4,72.3 C 41.4,73.7 42.5,74.8 43.9,74.8 L 55.1,74.8 C 56.5,74.8 57.6,73.7 57.6,72.3 L 57.6,66.3 C 57.6,66.3 59.1,64.8 59.7,62.7 C 60.3,60.6 61.2,55.1 61.2,55.1 L 61.2,26.7 Z M 52.1,44.8 C 52.1,44.8 45.9,47.4 45.9,52.1 C 45.9,56.8 52.1,59.4 52.1,59.4 L 52.1,64.2 L 46.9,64.2 L 46.9,59.4 C 46.9,59.4 40.8,56.8 40.8,52.1 C 40.8,47.4 46.9,44.8 46.9,44.8 L 46.9,39.9 L 52.1,39.9 L 52.1,44.8 Z" fill="#4B5563"/>
        <path d="M 52.1,21 C 52.1,21 45.9,23.6 45.9,28.3 C 45.9,33 52.1,35.6 52.1,35.6 L 52.1,40.5 L 46.9,40.5 L 46.9,35.6 C 46.9,35.6 40.8,33 40.8,28.3 C 40.8,23.6 46.9,21 46.9,21 L 46.9,16.2 L 52.1,16.2 L 52.1,21 Z" fill="#6B7280"/>
    </g>

    <!-- Logo de MySQL (simplificado) -->
    <g transform="translate(740, 410) scale(0.25)">
        <path d="M168.6,180.7c-13.8-3.3-21.7-6.2-21.7-15.1c0-8.9,8.4-14.8,21.5-14.8c13.1,0,21.7,5.5,21.7,14.2h28.1c0-23-19.4-38.3-50.1-38.3c-30.9,0-50.6,16.1-50.6,38.1c0,28,26,34.8,44,39.2c15.1,3.7,20.5,7.2,20.5,15.1c0,8.4-8.2,16.1-23.7,16.1c-16.1,0-25-7.7-25.7-17.1h-28.1c0.7,28,21.7,41.1,54.1,41.1c33.4,0,52.9-15.3,52.9-39.2C199.1,192.3,184.2,184.5,168.6,180.7z" fill="#4B5563"/>
        <path d="M256.3,128.5c-30.9,0-50.6,16.1-50.6,38.1c0,28,26,34.8,44,39.2c15.1,3.7,20.5,7.2,20.5,15.1c0,8.4-8.2,16.1-23.7,16.1c-16.1,0-25-7.7-25.7-17.1h-28.1c0.7,28,21.7,41.1,54.1,41.1c33.4,0,52.9-15.3,52.9-39.2c0-11.6-14.9-19.4-30.5-23.7c-13.8-3.3-21.7-6.2-21.7-15.1c0-8.9,8.4-14.8,21.5-14.8c13.1,0,21.7,5.5,21.7,14.2h28.1C296,144.6,287.2,128.5,256.3,128.5z" fill="#6B7280"/>
    </g>
</svg>